<svg id="Layer_2" data-name="Layer 2" xmlns="http://www.w3.org/2000/svg" viewBox="0 0 302.75 302.75">
	<defs>
		<style>
			.cls-1 {
			fill: url(#linear-gradient);
			}

			.cls-2 {
			fill: url(#linear-gradient-2);
			}
		</style>
		<linearGradient id="linear-gradient" x1="27.05" y1="27.05" x2="275.7" y2="275.7" gradientUnits="userSpaceOnUse">
			<stop offset="0" stop-color="#3650dc"/>
			<stop offset=".02" stop-color="#354fd6"/>
			<stop offset=".1" stop-color="#324bc4"/>
			<stop offset=".19" stop-color="#3049b8"/>
			<stop offset=".28" stop-color="#3049b5"/>
			<stop offset=".67" stop-color="#182456"/>
			<stop offset=".89" stop-color="#0b0f1e"/>
			<stop offset="1" stop-color="#0b0b0b"/>
		</linearGradient>
		<linearGradient id="linear-gradient-2" x1="-5403.65" y1="1581.05" x2="-5208.64" y2="1581.05" gradientTransform="translate(-5238.01 1420.05) rotate(-176.65)" gradientUnits="userSpaceOnUse">
			<stop offset="0" stop-color="#141d42" stop-opacity=".2"/>
			<stop offset=".04" stop-color="#3a4261" stop-opacity=".33"/>
			<stop offset=".1" stop-color="#636982" stop-opacity=".47"/>
			<stop offset=".15" stop-color="#888da0" stop-opacity=".6"/>
			<stop offset=".22" stop-color="#a8acb9" stop-opacity=".71"/>
			<stop offset=".28" stop-color="#c3c6cf" stop-opacity=".8"/>
			<stop offset=".36" stop-color="#d9dbe0" stop-opacity=".87"/>
			<stop offset=".44" stop-color="#eaebee" stop-opacity=".93"/>
			<stop offset=".55" stop-color="#f6f6f7" stop-opacity=".97"/>
			<stop offset=".69" stop-color="#fdfdfd" stop-opacity=".99"/>
			<stop offset="1" stop-color="#fff"/>
		</linearGradient>
	</defs>
	<g id="Translate_icons">
		<rect class="cls-1" width="302.75" height="302.75" rx="92.36" ry="92.36"/>
		<path class="cls-2" d="m147.91,248.85c-.08,0-.16,0-.24,0-.66-.03-1.32-.05-1.98-.09-53.67-3.14-94.79-49.36-91.65-103.03,3.14-53.67,49.36-94.79,103.03-91.65,26,1.52,49.85,13.07,67.16,32.53,17.31,19.46,26,44.5,24.49,70.5-.12,1.97-.29,3.95-.55,6.07-.4,3.29-3.38,5.64-6.67,5.24s-5.64-3.38-5.24-6.67c.22-1.87.38-3.61.48-5.33,1.33-22.8-6.29-44.75-21.47-61.82-15.18-17.06-36.1-27.2-58.9-28.53-47.04-2.77-87.6,33.3-90.35,80.37-2.75,47.07,33.3,87.6,80.37,90.35.58.03,1.17.06,1.75.08,3.31.13,5.89,2.92,5.76,6.23-.13,3.23-2.79,5.76-5.99,5.76Z"/>
	</g>
</svg>