<svg width="512" height="512" viewBox="0 0 512 512" fill="none" xmlns="http://www.w3.org/2000/svg">
	<path d="M0 256C0 114.615 114.615 0 256 0V0C397.385 0 512 114.615 512 256V256C512 397.385 397.385 512 256 512V512C114.615 512 0 397.385 0 256V256Z" fill="white"/>
	<path fill-rule="evenodd" clip-rule="evenodd" d="M4 256C4 395.176 116.824 508 256 508C395.176 508 508 395.176 508 256C508 116.824 395.176 4 256 4C116.824 4 4 116.824 4 256ZM256 0C114.615 0 0 114.615 0 256C0 397.385 114.615 512 256 512C397.385 512 512 397.385 512 256C512 114.615 397.385 0 256 0Z" fill="#EEEEEE"/>
	<path d="M145.211 369.236L93.6397 309.078C86.4243 300.661 86.6244 288.183 94.1061 280.002V280.002C101.846 271.539 114.798 270.467 123.824 277.543L164.057 309.088L316.658 145.007C323.278 137.889 333.797 135.986 342.492 140.333V140.333V140.333C350.12 144.147 352.416 153.947 347.277 160.752L190.897 367.828C186.21 374.031 179.251 378.12 171.551 379.195C163.85 380.27 156.038 378.244 149.831 373.563C148.142 372.288 146.593 370.837 145.211 369.236Z" fill="black"/>
	<path d="M415.825 221H371.825C367.935 221 364.204 219.455 361.454 216.704C358.703 213.954 357.158 210.223 357.158 206.333C357.158 202.443 358.703 198.713 361.454 195.962C364.204 193.212 367.935 191.667 371.825 191.667H415.825C419.715 191.667 423.445 193.212 426.196 195.962C428.946 198.713 430.492 202.443 430.492 206.333C430.492 210.223 428.946 213.954 426.196 216.704C423.445 219.455 419.715 221 415.825 221Z" fill="url(#paint0_linear_806_2101)"/>
	<path d="M415.826 294.333H313.159C309.269 294.333 305.538 292.788 302.788 290.038C300.037 287.287 298.492 283.557 298.492 279.667C298.492 275.777 300.037 272.046 302.788 269.296C305.538 266.545 309.269 265 313.159 265H415.826C419.715 265 423.446 266.545 426.196 269.296C428.947 272.046 430.492 275.777 430.492 279.667C430.492 283.557 428.947 287.287 426.196 290.038C423.446 292.788 419.715 294.333 415.826 294.333Z" fill="url(#paint1_linear_806_2101)"/>
	<path d="M415.826 367.667H269.159C265.269 367.667 261.538 366.122 258.788 363.371C256.037 360.621 254.492 356.89 254.492 353C254.492 349.11 256.037 345.38 258.788 342.629C261.538 339.879 265.269 338.333 269.159 338.333H415.826C419.715 338.333 423.446 339.879 426.196 342.629C428.947 345.38 430.492 349.11 430.492 353C430.492 356.89 428.947 360.621 426.196 363.371C423.446 366.122 419.715 367.667 415.826 367.667Z" fill="url(#paint2_linear_806_2101)"/>
	<defs>
		<linearGradient id="paint0_linear_806_2101" x1="393.482" y1="201.652" x2="393.766" y2="221.001" gradientUnits="userSpaceOnUse">
			<stop stop-color="#2B3FAD"/>
			<stop offset="1" stop-color="#3650DC"/>
		</linearGradient>
		<linearGradient id="paint1_linear_806_2101" x1="363.875" y1="274.986" x2="364.033" y2="294.337" gradientUnits="userSpaceOnUse">
			<stop stop-color="#2B3FAD"/>
			<stop offset="1" stop-color="#3650DC"/>
		</linearGradient>
		<linearGradient id="paint2_linear_806_2101" x1="341.67" y1="348.319" x2="341.788" y2="367.671" gradientUnits="userSpaceOnUse">
			<stop stop-color="#2B3FAD"/>
			<stop offset="1" stop-color="#3650DC"/>
		</linearGradient>
	</defs>
</svg>
